P3
10 10
255
107 185 195
252 222 195
232 224 201
207 239 211
223 190 255
255 223 240
0 0 0
0 0 0
0 0 0
0 0 0
111 159 181
155 245 208
209 194 227
237 230 227
241 202 223
242 212 222
231 0 0
0 0 0
0 0 0
0 0 0
110 141 208
174 191 255
231 198 246
244 193 210
252 200 212
244 203 209
224 192 0
0 0 0
0 0 0
0 0 0
132 144 132
191 184 176
227 180 183
232 165 174
248 183 253
242 191 254
208 177 174
201 180 174
0 0 0
0 0 0
177 169 158
221 193 243
240 172 175
234 149 154
255 165 169
240 170 172
208 165 159
203 172 128
0 0 0
0 0 0
191 164 239
222 176 225
248 252 158
239 138 208
243 147 151
238 158 159
222 167 160
216 0 0
0 0 0
0 0 0
178 139 122
191 193 246
207 112 118
224 113 122
237 128 135
232 144 143
218 156 143
209 0 0
0 0 0
0 0 0
178 133 110
159 98 80
239 75 73
207 90 93
224 124 116
224 131 123
197 133 108
167 116 0
0 0 0
0 0 0
230 191 148
167 108 74
163 66 49
201 89 77
206 100 86
181 91 67
145 83 42
120 73 17
146 101 33
182 128 0
255 255 175
193 232 93
171 77 51
229 86 67
210 105 84
211 122 92
202 142 0
0 0 0
0 0 0
0 0 0
