P3
10 10
255
107 161 243
254 255 227
168 160 201
207 173 211
255 190 217
237 213 224
0 0 0
0 0 0
0 0 0
0 0 0
111 157 181
155 181 208
209 194 227
233 196 227
241 202 223
242 212 222
231 0 0
0 0 0
0 0 0
0 0 0
110 141 240
175 189 255
253 198 247
244 193 210
252 200 212
244 203 209
224 192 0
0 0 0
0 0 0
0 0 0
132 144 132
191 184 176
226 180 183
232 165 174
248 183 189
242 187 190
208 177 174
201 180 174
0 0 0
0 0 0
177 169 150
221 193 179
240 172 171
234 149 154
255 165 169
240 170 172
208 165 159
203 172 128
0 0 0
0 0 0
191 164 143
222 184 161
240 156 222
239 139 208
243 147 151
238 158 159
222 167 160
216 0 0
0 0 0
0 0 0
178 139 122
187 129 254
207 112 116
224 113 122
233 128 135
232 144 143
218 156 143
209 0 0
0 0 0
0 0 0
178 133 110
159 98 80
191 75 205
205 218 93
240 116 116
224 131 123
197 133 108
167 116 0
0 0 0
0 0 0
230 191 148
167 110 106
179 66 49
201 89 77
206 100 86
253 91 67
145 83 42
120 73 17
146 101 33
182 128 0
255 227 239
193 232 93
175 125 59
229 86 67
210 105 84
211 122 92
202 142 0
0 0 0
0 0 0
0 0 0
