P3
10 10
255
107 161 195
124 158 195
168 160 201
203 173 211
223 190 217
237 213 227
232 224 222
215 0 0
0 0 0
0 0 0
111 157 181
155 181 208
209 194 227
233 196 227
241 202 223
242 212 222
231 220 218
225 221 212
160 0 0
0 0 0
110 141 144
174 185 191
229 198 214
244 193 210
252 200 212
244 203 209
224 203 200
222 209 203
192 177 0
0 0 0
132 144 132
191 184 176
226 180 183
232 165 174
248 183 189
242 187 190
208 177 174
201 180 175
188 167 166
134 112 114
177 169 150
221 193 179
240 172 171
234 149 154
247 165 169
240 170 172
208 165 159
203 172 167
226 196 196
176 147 149
191 164 143
222 176 161
240 156 154
239 138 144
243 147 151
238 158 159
222 167 160
223 185 174
208 171 162
0 0 0
178 139 122
187 129 118
207 112 116
224 113 122
233 128 135
232 144 143
218 156 143
209 164 143
181 139 114
185 146 0
178 133 110
159 98 80
175 75 73
205 90 93
224 116 116
224 131 123
197 133 108
167 119 83
155 111 98
244 138 88
230 191 148
167 108 74
163 66 49
201 89 77
206 100 86
181 91 67
145 83 42
120 73 17
146 101 33
182 138 63
255 227 175
193 136 93
171 77 51
197 86 67
210 105 84
211 122 92
202 142 92
192 147 80
198 152 74
232 184 0
