P3
10 10
255
38
27
121
31
20
112
39
31
116
43
38
118
60
55
135
56
55
131
41
40
120
66
69
150
50
54
141
51
57
145
80
46
122
112
80
153
131
102
169
136
111
177
122
101
166
104
88
153
88
75
145
55
47
122
53
50
131
51
52
135
201
123
162
225
151
188
222
150
187
229
165
200
216
160
197
199
152
194
191
153
204
133
105
164
91
71
143
65
52
131
242
154
170
240
153
169
218
136
150
215
137
151
221
150
168
212
150
173
206
150
185
201
154
200
147
107
169
94
59
127
224
157
164
225
159
163
218
152
156
185
120
124
207
142
148
209
146
157
175
110
132
224
159
191
212
146
192
165
98
151
218
152
166
211
145
157
206
138
149
157
90
99
193
123
131
221
149
160
166
89
107
203
123
148
234
150
184
220
134
173
246
161
202
220
135
174
222
137
170
193
107
136
199
114
137
224
137
156
203
114
134
226
134
155
219
125
151
227
131
158
220
118
168
200
98
145
232
131
171
231
131
165
171
72
100
152
54
77
188
91
111
230
131
152
229
130
151
238
139
160
246
129
171
252
136
173
255
147
180
250
140
167
205
97
120
171
65
85
194
92
113
243
144
165
244
146
171
242
146
173
255
136
172
252
131
164
253
133
161
255
139
162
242
129
149
224
115
134
231
128
147
252
153
174
240
144
172
239
144
174
